<?xml version="1.0" standalone="no"?>
<!DOCTYPE svg PUBLIC "-//W3C//DTD SVG 20010904//EN"
 "http://www.w3.org/TR/2001/REC-SVG-20010904/DTD/svg10.dtd">
<svg version="1.0" xmlns="http://www.w3.org/2000/svg"
 width="552.000000pt" height="552.000000pt" viewBox="0 0 552.000000 552.000000"
 preserveAspectRatio="xMidYMid meet">
<metadata>
Created by potrace 1.11, written by Peter Selinger 2001-2013
</metadata>
<g transform="translate(0.000000,552.000000) scale(0.100000,-0.100000)"
fill="#000000" stroke="none">
<path d="M4408 5500 c-81 -31 -159 -97 -333 -285 -65 -71 -157 -188 -203 -260
-40 -62 -127 -182 -142 -195 -3 -3 -29 -34 -59 -70 -149 -180 -298 -336 -338
-351 -37 -14 -104 -13 -196 1 -86 14 -188 9 -267 -14 -117 -35 -202 -37 -303
-10 -69 18 -242 26 -308 14 -236 -44 -303 -18 -381 148 -18 37 -61 105 -98
152 -84 109 -127 174 -186 286 -58 107 -60 111 -186 268 -225 283 -329 354
-418 288 -47 -35 -65 -78 -108 -253 -49 -200 -52 -215 -57 -250 -3 -15 -11
-60 -19 -100 -31 -156 -41 -279 -37 -479 4 -252 5 -372 1 -430 -8 -122 15
-273 59 -383 21 -51 32 -101 36 -154 3 -43 8 -98 11 -123 3 -25 6 -47 6 -50 0
-3 4 -15 9 -26 4 -12 11 -42 14 -65 4 -24 15 -71 26 -104 11 -36 21 -101 24
-158 2 -54 7 -102 10 -107 3 -5 8 -37 12 -72 3 -35 7 -65 9 -67 2 -2 -7 -24
-20 -50 -13 -25 -22 -59 -21 -76 2 -16 6 -88 10 -160 13 -262 37 -466 78 -670
3 -11 8 -38 11 -60 23 -129 128 -436 162 -476 8 -8 14 -19 14 -23 0 -19 161
-263 268 -405 60 -81 62 -84 91 -119 11 -13 34 -42 53 -64 96 -120 281 -308
378 -384 136 -107 193 -131 360 -151 111 -14 363 -7 464 12 46 9 84 27 234
114 271 156 453 241 546 255 112 18 199 130 332 431 9 22 32 81 49 131 17 50
34 95 37 100 21 33 188 649 203 744 3 20 7 47 10 60 3 13 7 42 10 65 3 22 8
47 10 55 2 8 7 31 10 50 3 19 10 49 15 65 8 28 15 65 26 145 6 47 13 134 19
255 6 132 12 162 46 257 16 44 32 96 35 116 2 20 16 96 29 167 13 72 27 150
30 175 3 25 8 60 11 78 8 57 39 125 97 211 59 88 95 169 104 236 3 22 7 103 8
180 1 78 9 178 18 225 23 120 25 129 33 217 13 133 8 312 -12 448 -3 22 -7 58
-9 80 -12 153 -75 489 -101 535 -48 89 -122 117 -216 80z"/>
</g>
</svg>
